<mxfile host="app.diagrams.net" modified="2024-05-02T03:42:12.250Z" agent="Mozilla/5.0 (Windows NT 10.0; Win64; x64) AppleWebKit/537.36 (KHTML, like Gecko) Chrome/124.0.0.0 Safari/537.36" etag="cdThsctYyDCBT0UxgO5f" version="21.6.6" type="device">
  <diagram name="Page-1" id="tnvgZM0FmMJcun1g3rQK">
    <mxGraphModel dx="2074" dy="1106" grid="1" gridSize="10" guides="1" tooltips="1" connect="1" arrows="1" fold="1" page="1" pageScale="1" pageWidth="850" pageHeight="1100" math="0" shadow="0">
      <root>
        <mxCell id="0" />
        <mxCell id="1" parent="0" />
        <mxCell id="3p-_I693n1i471xa-Qc9-1" value="Actor" style="shape=umlActor;verticalLabelPosition=bottom;verticalAlign=top;html=1;" vertex="1" parent="1">
          <mxGeometry x="90" y="480" width="30" height="60" as="geometry" />
        </mxCell>
        <mxCell id="3p-_I693n1i471xa-Qc9-2" value="UIService" style="html=1;whiteSpace=wrap;fillColor=#e1d5e7;strokeColor=#9673a6;" vertex="1" parent="1">
          <mxGeometry x="250" y="410" width="110" height="50" as="geometry" />
        </mxCell>
        <mxCell id="3p-_I693n1i471xa-Qc9-3" value="GameService" style="html=1;whiteSpace=wrap;fillColor=#dae8fc;strokeColor=#6c8ebf;" vertex="1" parent="1">
          <mxGeometry x="420" y="500" width="110" height="50" as="geometry" />
        </mxCell>
        <mxCell id="3p-_I693n1i471xa-Qc9-5" value="ScanService" style="html=1;whiteSpace=wrap;fillColor=#d5e8d4;strokeColor=#82b366;" vertex="1" parent="1">
          <mxGeometry x="250" y="580" width="110" height="50" as="geometry" />
        </mxCell>
        <mxCell id="3p-_I693n1i471xa-Qc9-6" value="" style="endArrow=classic;html=1;rounded=0;exitX=0;exitY=0.5;exitDx=0;exitDy=0;" edge="1" parent="1" source="3p-_I693n1i471xa-Qc9-2" target="3p-_I693n1i471xa-Qc9-1">
          <mxGeometry width="50" height="50" relative="1" as="geometry">
            <mxPoint x="560" y="590" as="sourcePoint" />
            <mxPoint x="610" y="540" as="targetPoint" />
          </mxGeometry>
        </mxCell>
        <mxCell id="3p-_I693n1i471xa-Qc9-7" value="① 입력화면 출력" style="edgeLabel;html=1;align=center;verticalAlign=middle;resizable=0;points=[];fontSize=14;fontFamily=Helvetica;fontStyle=1" vertex="1" connectable="0" parent="3p-_I693n1i471xa-Qc9-6">
          <mxGeometry x="-0.0709" y="1" relative="1" as="geometry">
            <mxPoint x="-20" y="-17" as="offset" />
          </mxGeometry>
        </mxCell>
        <mxCell id="3p-_I693n1i471xa-Qc9-10" value="" style="endArrow=classic;html=1;rounded=0;entryX=0;entryY=0.5;entryDx=0;entryDy=0;" edge="1" parent="1" target="3p-_I693n1i471xa-Qc9-5">
          <mxGeometry width="50" height="50" relative="1" as="geometry">
            <mxPoint x="130" y="530" as="sourcePoint" />
            <mxPoint x="250" y="615" as="targetPoint" />
          </mxGeometry>
        </mxCell>
        <mxCell id="3p-_I693n1i471xa-Qc9-11" value="② 입력" style="edgeLabel;html=1;align=center;verticalAlign=middle;resizable=0;points=[];fontSize=14;fontFamily=Helvetica;fontStyle=1" vertex="1" connectable="0" parent="3p-_I693n1i471xa-Qc9-10">
          <mxGeometry x="-0.0709" y="1" relative="1" as="geometry">
            <mxPoint x="-20" y="16" as="offset" />
          </mxGeometry>
        </mxCell>
        <mxCell id="3p-_I693n1i471xa-Qc9-12" value="" style="endArrow=classic;html=1;rounded=0;entryX=0.5;entryY=1;entryDx=0;entryDy=0;exitX=1;exitY=0.5;exitDx=0;exitDy=0;" edge="1" parent="1" source="3p-_I693n1i471xa-Qc9-5" target="3p-_I693n1i471xa-Qc9-3">
          <mxGeometry width="50" height="50" relative="1" as="geometry">
            <mxPoint x="380" y="625" as="sourcePoint" />
            <mxPoint x="495" y="570" as="targetPoint" />
          </mxGeometry>
        </mxCell>
        <mxCell id="3p-_I693n1i471xa-Qc9-13" value="③ 입력값 전달" style="edgeLabel;html=1;align=center;verticalAlign=middle;resizable=0;points=[];fontSize=14;fontFamily=Helvetica;fontStyle=1" vertex="1" connectable="0" parent="3p-_I693n1i471xa-Qc9-12">
          <mxGeometry x="-0.0709" y="1" relative="1" as="geometry">
            <mxPoint x="12" y="11" as="offset" />
          </mxGeometry>
        </mxCell>
        <mxCell id="3p-_I693n1i471xa-Qc9-14" value="" style="endArrow=classic;html=1;rounded=0;exitX=1;exitY=0.5;exitDx=0;exitDy=0;edgeStyle=orthogonalEdgeStyle;curved=1;entryX=0.75;entryY=0;entryDx=0;entryDy=0;" edge="1" parent="1" source="3p-_I693n1i471xa-Qc9-3" target="3p-_I693n1i471xa-Qc9-3">
          <mxGeometry width="50" height="50" relative="1" as="geometry">
            <mxPoint x="560" y="520" as="sourcePoint" />
            <mxPoint x="580" y="440" as="targetPoint" />
            <Array as="points">
              <mxPoint x="550" y="450" />
            </Array>
          </mxGeometry>
        </mxCell>
        <mxCell id="3p-_I693n1i471xa-Qc9-15" value="④ 처리" style="edgeLabel;html=1;align=center;verticalAlign=middle;resizable=0;points=[];fontSize=14;fontFamily=Helvetica;fontStyle=1" vertex="1" connectable="0" parent="3p-_I693n1i471xa-Qc9-14">
          <mxGeometry x="-0.0709" y="1" relative="1" as="geometry">
            <mxPoint x="13" y="11" as="offset" />
          </mxGeometry>
        </mxCell>
        <mxCell id="3p-_I693n1i471xa-Qc9-18" value="" style="endArrow=classic;html=1;rounded=0;entryX=1;entryY=0.5;entryDx=0;entryDy=0;exitX=0.5;exitY=0;exitDx=0;exitDy=0;" edge="1" parent="1" source="3p-_I693n1i471xa-Qc9-3" target="3p-_I693n1i471xa-Qc9-2">
          <mxGeometry width="50" height="50" relative="1" as="geometry">
            <mxPoint x="360" y="480" as="sourcePoint" />
            <mxPoint x="475" y="425" as="targetPoint" />
          </mxGeometry>
        </mxCell>
        <mxCell id="3p-_I693n1i471xa-Qc9-19" value="⑤ 출력호출" style="edgeLabel;html=1;align=center;verticalAlign=middle;resizable=0;points=[];fontSize=14;fontFamily=Helvetica;fontStyle=1" vertex="1" connectable="0" parent="3p-_I693n1i471xa-Qc9-18">
          <mxGeometry x="-0.0709" y="1" relative="1" as="geometry">
            <mxPoint x="4" y="-11" as="offset" />
          </mxGeometry>
        </mxCell>
        <mxCell id="3p-_I693n1i471xa-Qc9-20" value="" style="endArrow=classic;html=1;rounded=0;exitX=0;exitY=0.5;exitDx=0;exitDy=0;" edge="1" parent="1">
          <mxGeometry width="50" height="50" relative="1" as="geometry">
            <mxPoint x="250" y="450" as="sourcePoint" />
            <mxPoint x="120" y="517" as="targetPoint" />
          </mxGeometry>
        </mxCell>
        <mxCell id="3p-_I693n1i471xa-Qc9-21" value="⑥ 결과출력" style="edgeLabel;html=1;align=center;verticalAlign=middle;resizable=0;points=[];fontSize=14;fontFamily=Helvetica;fontStyle=1" vertex="1" connectable="0" parent="3p-_I693n1i471xa-Qc9-20">
          <mxGeometry x="-0.0709" y="1" relative="1" as="geometry">
            <mxPoint x="20" y="8" as="offset" />
          </mxGeometry>
        </mxCell>
      </root>
    </mxGraphModel>
  </diagram>
</mxfile>
